<svg width="24" height="24" viewBox="0 0 24 24" fill="none" xmlns="http://www.w3.org/2000/svg">
<g clip-path="url(#clip0_1274_10468)">
<path fill-rule="evenodd" clip-rule="evenodd" d="M24.0006 7.50628V7.50751H24V16.4924C24 16.5498 24 16.6072 24 16.6646C24.0001 16.8939 24.0002 17.1231 23.9986 17.3524C23.9973 17.5937 23.9946 17.8351 23.988 18.0764C23.974 18.6018 23.9426 19.1324 23.8493 19.6525C23.7546 20.1805 23.5993 20.6718 23.3553 21.1518C23.1153 21.6232 22.8019 22.0538 22.4279 22.4279C22.0539 22.8019 21.6226 23.1152 21.1512 23.3552C20.6719 23.5992 20.1812 23.7546 19.6532 23.8492C19.1332 23.9426 18.6025 23.9739 18.0765 23.9879C17.8351 23.9946 17.5938 23.9972 17.3525 23.9986C17.0662 23.9999 16.7799 23.9999 16.4937 23.9999H7.50757C7.45017 23.9999 7.39277 23.9999 7.33537 23.9999C7.1061 24.0001 6.87682 24.0002 6.64755 23.9986C6.40621 23.9972 6.16487 23.9946 5.92353 23.9879C5.39752 23.9739 4.86684 23.9426 4.34683 23.8492C3.81948 23.7539 3.32814 23.5992 2.84879 23.3552C2.37745 23.1152 1.94611 22.8019 1.5721 22.4279C1.19809 22.0538 0.884748 21.6232 0.644743 21.1518C0.400737 20.6718 0.2454 20.1805 0.150731 19.6525C0.0573957 19.1324 0.0260616 18.6024 0.0120613 18.0764C0.00539449 17.8351 0.00272776 17.5937 0.0013944 17.3524C6.10352e-05 17.0657 6.10352e-05 16.7791 6.10352e-05 16.4924V7.50751C6.10352e-05 7.22083 6.10352e-05 6.93416 0.0013944 6.64815C0.00272776 6.40682 0.00539449 6.16548 0.0120613 5.92414C0.0260616 5.39879 0.0573957 4.86811 0.150731 4.3481C0.2454 3.82009 0.400737 3.32874 0.644743 2.84873C0.884748 2.37739 1.19809 1.94671 1.5721 1.5727C1.94611 1.19869 2.37745 0.885354 2.84879 0.645348C3.32814 0.401343 3.81882 0.246006 4.34683 0.151337C4.86684 0.0573347 5.39752 0.0266673 5.92353 0.0120003C6.16487 0.00533346 6.40621 0.00266673 6.64755 0.00133336C6.93422 0 7.2209 0 7.50757 0H16.4931C16.7798 0 17.0665 0 17.3531 0.00133336C17.5945 0.00266673 17.8358 0.00533346 18.0771 0.0120003C18.6032 0.0260006 19.1338 0.0573347 19.6539 0.15067C20.1812 0.246006 20.6725 0.400676 21.1519 0.644682C21.6232 0.884687 22.0546 1.19803 22.4286 1.57204C22.8026 1.94605 23.1159 2.37672 23.3559 2.84807C23.5999 3.32808 23.7553 3.81942 23.8499 4.34743C23.9433 4.86745 23.9746 5.39746 23.9886 5.92347C23.9953 6.16481 23.998 6.40615 23.9993 6.64749C24.0006 6.93375 24.0006 7.22002 24.0006 7.50628ZM16.2861 3.76554C16.348 3.75291 16.8619 3.66183 16.9197 3.65651C17.3046 3.62327 17.5207 3.8759 17.5194 4.28543V15.5747C17.5194 15.8779 17.5167 16.1525 17.4529 16.4563C17.3911 16.7508 17.2787 17.028 17.1045 17.2773C16.931 17.526 16.709 17.7301 16.4497 17.883C16.1877 18.0379 15.9125 18.1263 15.6187 18.1855C15.0669 18.2965 14.6892 18.3218 14.3349 18.2506C13.9932 18.1815 13.7033 18.0246 13.4713 17.8119C13.1276 17.4974 12.9135 17.0719 12.867 16.6271C12.8125 16.1059 12.9853 15.5495 13.3769 15.1393C13.5743 14.9319 13.8223 14.7683 14.1534 14.64C14.4998 14.5057 14.882 14.4253 15.4697 14.3069L15.9344 14.2132C16.1385 14.172 16.3127 14.1201 16.4537 13.9479C16.5959 13.7751 16.5979 13.5637 16.5979 13.3549V8.08355C16.5979 7.68 16.4164 7.57031 16.0315 7.6441C15.7556 7.69795 9.8427 8.89064 9.8427 8.89064C9.50896 8.97175 9.39195 9.08078 9.39195 9.4943V17.2162C9.39195 17.5193 9.37666 17.7939 9.31284 18.0977C9.25101 18.3922 9.13866 18.6695 8.96447 18.9188C8.79096 19.1674 8.56891 19.3715 8.30963 19.5244C8.04769 19.6793 7.77245 19.7717 7.4786 19.8309C6.9268 19.9426 6.54918 19.9672 6.19483 19.8961C5.85312 19.8276 5.56326 19.666 5.33123 19.4533C4.98752 19.1388 4.78741 18.7134 4.74087 18.2686C4.68636 17.7474 4.84525 17.1909 5.23683 16.7807C5.43428 16.5733 5.68226 16.4098 6.01334 16.2814C6.35971 16.1471 6.74198 16.0667 7.32968 15.9484L7.79439 15.8546C7.99849 15.8134 8.17267 15.7616 8.31362 15.5894C8.45456 15.4172 8.47118 15.2151 8.47118 15.007V6.10371C8.47118 5.98405 8.48115 5.90294 8.48713 5.86305C8.51572 5.67557 8.59085 5.51468 8.72647 5.401C8.83882 5.30659 8.98442 5.24078 9.1699 5.20155L9.17256 5.20089L16.2861 3.76554Z" fill="black"/>
</g>
<defs>
<clipPath id="clip0_1274_10468">
<rect width="24" height="24" fill="white"/>
</clipPath>
</defs>
</svg>
